<svg width="1440" height="331" viewBox="0 0 1440 331" fill="none" xmlns="http://www.w3.org/2000/svg">
<mask id="mask0_182_1578" style="mask-type:alpha" maskUnits="userSpaceOnUse" x="0" y="0" width="1440" height="331">
<rect width="1440" height="331" fill="#C4C4C4"/>
</mask>
<g mask="url(#mask0_182_1578)">
<rect width="1440" height="800" fill="#EEEEEE"/>
<path d="M443.033 230.351C386.207 230.351 351.48 270.818 351.48 336.828C351.48 402.838 385.92 443.305 442.172 443.305C491.249 443.305 522.819 414.892 526.837 368.111H491.536C487.805 395.95 469.437 412.596 442.172 412.596C408.019 412.596 387.068 383.896 387.068 336.828C387.068 289.76 408.306 261.06 443.033 261.06C470.298 261.06 488.379 277.706 491.249 304.684H525.976C523.967 261.347 492.971 230.351 443.033 230.351ZM573.134 265.939V234.656H540.416V265.939H573.134ZM573.134 439V293.204H540.416V439H573.134ZM650.843 288.899C611.524 288.899 591.434 310.711 589.999 338.263H622.143C623.004 322.765 632.762 312.72 650.843 312.72C667.489 312.72 679.256 321.33 679.256 342.855V348.595C668.924 349.169 651.704 350.891 639.937 352.9C598.035 359.501 583.972 374.999 583.972 398.82C583.972 423.789 602.914 442.157 633.336 442.157C655.435 442.157 671.794 434.121 682.413 418.623H682.987C682.987 425.511 683.561 432.686 684.996 439H714.557C712.261 429.816 710.826 417.762 710.826 400.542V346.012C710.826 307.841 689.301 288.899 650.843 288.899ZM679.256 377.008C679.256 392.506 676.96 400.255 669.211 408.291C662.61 414.892 652.852 418.049 642.807 418.049C626.161 418.049 616.977 409.439 616.977 396.524C616.977 383.322 624.726 377.008 645.677 373.564C655.435 371.842 669.498 370.407 679.256 369.833V377.008ZM797.805 291.195C779.724 291.195 765.948 298.944 756.19 314.729H755.616V293.204H725.194V439H757.912V367.537C757.912 337.115 772.262 320.469 798.379 320.469C802.11 320.469 805.841 320.756 809.859 321.617V292.63C806.128 291.769 801.536 291.195 797.805 291.195ZM881.022 275.984L918.906 234.656H877.578L854.331 275.984H881.022ZM877.865 288.899C838.546 288.899 818.456 310.711 817.021 338.263H849.165C850.026 322.765 859.784 312.72 877.865 312.72C894.511 312.72 906.278 321.33 906.278 342.855V348.595C895.946 349.169 878.726 350.891 866.959 352.9C825.057 359.501 810.994 374.999 810.994 398.82C810.994 423.789 829.936 442.157 860.358 442.157C882.457 442.157 898.816 434.121 909.435 418.623H910.009C910.009 425.511 910.583 432.686 912.018 439H941.579C939.283 429.816 937.848 417.762 937.848 400.542V346.012C937.848 307.841 916.323 288.899 877.865 288.899ZM906.278 377.008C906.278 392.506 903.982 400.255 896.233 408.291C889.632 414.892 879.874 418.049 869.829 418.049C853.183 418.049 843.999 409.439 843.999 396.524C843.999 383.322 851.748 377.008 872.699 373.564C882.457 371.842 896.52 370.407 906.278 369.833V377.008ZM1027.41 289.76C1008.18 289.76 992.97 298.944 983.786 312.146H983.212V293.204H952.216V439H984.934V358.066C984.934 330.227 999.571 316.164 1018.23 316.164C1036.59 316.164 1047.79 326.496 1047.79 352.613V439H1080.5V349.743C1080.5 309.85 1060.41 289.76 1027.41 289.76Z" fill="#5F5F5F"/>
</g>
</svg>
