<svg width="1440" height="38" viewBox="0 0 1440 38" fill="none" xmlns="http://www.w3.org/2000/svg">
<mask id="mask0_182_1573" style="mask-type:alpha" maskUnits="userSpaceOnUse" x="0" y="0" width="1440" height="38">
<rect width="1440" height="38" fill="#C4C4C4"/>
</mask>
<g mask="url(#mask0_182_1573)">
<rect y="-331" width="1440" height="800" fill="#EEEEEE"/>
<path d="M443.033 -100.649C386.207 -100.649 351.48 -60.182 351.48 5.828C351.48 71.838 385.92 112.305 442.172 112.305C491.249 112.305 522.819 83.892 526.837 37.111H491.536C487.805 64.95 469.437 81.596 442.172 81.596C408.019 81.596 387.068 52.896 387.068 5.828C387.068 -41.24 408.306 -69.94 443.033 -69.94C470.298 -69.94 488.379 -53.294 491.249 -26.316H525.976C523.967 -69.653 492.971 -100.649 443.033 -100.649ZM573.134 -65.061V-96.344H540.416V-65.061H573.134ZM573.134 108V-37.796H540.416V108H573.134ZM650.843 -42.101C611.524 -42.101 591.434 -20.289 589.999 7.263H622.143C623.004 -8.23501 632.762 -18.28 650.843 -18.28C667.489 -18.28 679.256 -9.67001 679.256 11.855V17.595C668.924 18.169 651.704 19.891 639.937 21.9C598.035 28.501 583.972 43.999 583.972 67.82C583.972 92.789 602.914 111.157 633.336 111.157C655.435 111.157 671.794 103.121 682.413 87.623H682.987C682.987 94.511 683.561 101.686 684.996 108H714.557C712.261 98.816 710.826 86.762 710.826 69.542V15.012C710.826 -23.159 689.301 -42.101 650.843 -42.101ZM679.256 46.008C679.256 61.506 676.96 69.255 669.211 77.291C662.61 83.892 652.852 87.049 642.807 87.049C626.161 87.049 616.977 78.439 616.977 65.524C616.977 52.322 624.726 46.008 645.677 42.564C655.435 40.842 669.498 39.407 679.256 38.833V46.008ZM797.805 -39.805C779.724 -39.805 765.948 -32.056 756.19 -16.271H755.616V-37.796H725.194V108H757.912V36.537C757.912 6.11499 772.262 -10.531 798.379 -10.531C802.11 -10.531 805.841 -10.244 809.859 -9.383V-38.37C806.128 -39.231 801.536 -39.805 797.805 -39.805ZM881.022 -55.016L918.906 -96.344H877.578L854.331 -55.016H881.022ZM877.865 -42.101C838.546 -42.101 818.456 -20.289 817.021 7.263H849.165C850.026 -8.23501 859.784 -18.28 877.865 -18.28C894.511 -18.28 906.278 -9.67001 906.278 11.855V17.595C895.946 18.169 878.726 19.891 866.959 21.9C825.057 28.501 810.994 43.999 810.994 67.82C810.994 92.789 829.936 111.157 860.358 111.157C882.457 111.157 898.816 103.121 909.435 87.623H910.009C910.009 94.511 910.583 101.686 912.018 108H941.579C939.283 98.816 937.848 86.762 937.848 69.542V15.012C937.848 -23.159 916.323 -42.101 877.865 -42.101ZM906.278 46.008C906.278 61.506 903.982 69.255 896.233 77.291C889.632 83.892 879.874 87.049 869.829 87.049C853.183 87.049 843.999 78.439 843.999 65.524C843.999 52.322 851.748 46.008 872.699 42.564C882.457 40.842 896.52 39.407 906.278 38.833V46.008ZM1027.41 -41.24C1008.18 -41.24 992.97 -32.056 983.786 -18.854H983.212V-37.796H952.216V108H984.934V27.066C984.934 -0.773002 999.571 -14.836 1018.23 -14.836C1036.59 -14.836 1047.79 -4.50401 1047.79 21.613V108H1080.5V18.743C1080.5 -21.15 1060.41 -41.24 1027.41 -41.24Z" fill="#20262C"/>
</g>
</svg>
