<svg width="1440" height="38" viewBox="0 0 1440 38" fill="none" xmlns="http://www.w3.org/2000/svg">
<mask id="mask0_182_1568" style="mask-type:alpha" maskUnits="userSpaceOnUse" x="0" y="0" width="1440" height="38">
<rect width="1440" height="38" fill="#C4C4C4"/>
</mask>
<g mask="url(#mask0_182_1568)">
<rect y="-369" width="1440" height="800" fill="#EEEEEE"/>
<path d="M443.033 -138.649C386.207 -138.649 351.48 -98.182 351.48 -32.172C351.48 33.838 385.92 74.305 442.172 74.305C491.249 74.305 522.819 45.892 526.837 -0.889003H491.536C487.805 26.95 469.437 43.596 442.172 43.596C408.019 43.596 387.068 14.896 387.068 -32.172C387.068 -79.24 408.306 -107.94 443.033 -107.94C470.298 -107.94 488.379 -91.294 491.249 -64.316H525.976C523.967 -107.653 492.971 -138.649 443.033 -138.649ZM573.134 -103.061V-134.344H540.416V-103.061H573.134ZM573.134 70V-75.796H540.416V70H573.134ZM650.843 -80.101C611.524 -80.101 591.434 -58.289 589.999 -30.737H622.143C623.004 -46.235 632.762 -56.28 650.843 -56.28C667.489 -56.28 679.256 -47.67 679.256 -26.145V-20.405C668.924 -19.831 651.704 -18.109 639.937 -16.1C598.035 -9.499 583.972 5.999 583.972 29.82C583.972 54.789 602.914 73.157 633.336 73.157C655.435 73.157 671.794 65.121 682.413 49.623H682.987C682.987 56.511 683.561 63.686 684.996 70H714.557C712.261 60.816 710.826 48.762 710.826 31.542V-22.988C710.826 -61.159 689.301 -80.101 650.843 -80.101ZM679.256 8.008C679.256 23.506 676.96 31.255 669.211 39.291C662.61 45.892 652.852 49.049 642.807 49.049C626.161 49.049 616.977 40.439 616.977 27.524C616.977 14.322 624.726 8.008 645.677 4.564C655.435 2.842 669.498 1.407 679.256 0.832997V8.008ZM797.805 -77.805C779.724 -77.805 765.948 -70.056 756.19 -54.271H755.616V-75.796H725.194V70H757.912V-1.463C757.912 -31.885 772.262 -48.531 798.379 -48.531C802.11 -48.531 805.841 -48.244 809.859 -47.383V-76.37C806.128 -77.231 801.536 -77.805 797.805 -77.805ZM881.022 -93.016L918.906 -134.344H877.578L854.331 -93.016H881.022ZM877.865 -80.101C838.546 -80.101 818.456 -58.289 817.021 -30.737H849.165C850.026 -46.235 859.784 -56.28 877.865 -56.28C894.511 -56.28 906.278 -47.67 906.278 -26.145V-20.405C895.946 -19.831 878.726 -18.109 866.959 -16.1C825.057 -9.499 810.994 5.999 810.994 29.82C810.994 54.789 829.936 73.157 860.358 73.157C882.457 73.157 898.816 65.121 909.435 49.623H910.009C910.009 56.511 910.583 63.686 912.018 70H941.579C939.283 60.816 937.848 48.762 937.848 31.542V-22.988C937.848 -61.159 916.323 -80.101 877.865 -80.101ZM906.278 8.008C906.278 23.506 903.982 31.255 896.233 39.291C889.632 45.892 879.874 49.049 869.829 49.049C853.183 49.049 843.999 40.439 843.999 27.524C843.999 14.322 851.748 8.008 872.699 4.564C882.457 2.842 896.52 1.407 906.278 0.832997V8.008ZM1027.41 -79.24C1008.18 -79.24 992.97 -70.056 983.786 -56.854H983.212V-75.796H952.216V70H984.934V-10.934C984.934 -38.773 999.571 -52.836 1018.23 -52.836C1036.59 -52.836 1047.79 -42.504 1047.79 -16.387V70H1080.5V-19.257C1080.5 -59.15 1060.41 -79.24 1027.41 -79.24Z" fill="#20262C"/>
</g>
</svg>
