<svg width="1440" height="38" viewBox="0 0 1440 38" fill="none" xmlns="http://www.w3.org/2000/svg">
<mask id="mask0_182_1563" style="mask-type:alpha" maskUnits="userSpaceOnUse" x="0" y="0" width="1440" height="38">
<rect width="1440" height="38" fill="#C4C4C4"/>
</mask>
<g mask="url(#mask0_182_1563)">
<rect y="-407" width="1440" height="800" fill="#EEEEEE"/>
<path d="M443.033 -176.649C386.207 -176.649 351.48 -136.182 351.48 -70.172C351.48 -4.162 385.92 36.305 442.172 36.305C491.249 36.305 522.819 7.892 526.837 -38.889H491.536C487.805 -11.05 469.437 5.596 442.172 5.596C408.019 5.596 387.068 -23.104 387.068 -70.172C387.068 -117.24 408.306 -145.94 443.033 -145.94C470.298 -145.94 488.379 -129.294 491.249 -102.316H525.976C523.967 -145.653 492.971 -176.649 443.033 -176.649ZM573.134 -141.061V-172.344H540.416V-141.061H573.134ZM573.134 32V-113.796H540.416V32H573.134ZM650.843 -118.101C611.524 -118.101 591.434 -96.289 589.999 -68.737H622.143C623.004 -84.235 632.762 -94.28 650.843 -94.28C667.489 -94.28 679.256 -85.67 679.256 -64.145V-58.405C668.924 -57.831 651.704 -56.109 639.937 -54.1C598.035 -47.499 583.972 -32.001 583.972 -8.18C583.972 16.789 602.914 35.157 633.336 35.157C655.435 35.157 671.794 27.121 682.413 11.623H682.987C682.987 18.511 683.561 25.686 684.996 32H714.557C712.261 22.816 710.826 10.762 710.826 -6.458V-60.988C710.826 -99.159 689.301 -118.101 650.843 -118.101ZM679.256 -29.992C679.256 -14.494 676.96 -6.745 669.211 1.291C662.61 7.892 652.852 11.049 642.807 11.049C626.161 11.049 616.977 2.439 616.977 -10.476C616.977 -23.678 624.726 -29.992 645.677 -33.436C655.435 -35.158 669.498 -36.593 679.256 -37.167V-29.992ZM797.805 -115.805C779.724 -115.805 765.948 -108.056 756.19 -92.271H755.616V-113.796H725.194V32H757.912V-39.463C757.912 -69.885 772.262 -86.531 798.379 -86.531C802.11 -86.531 805.841 -86.244 809.859 -85.383V-114.37C806.128 -115.231 801.536 -115.805 797.805 -115.805ZM881.022 -131.016L918.906 -172.344H877.578L854.331 -131.016H881.022ZM877.865 -118.101C838.546 -118.101 818.456 -96.289 817.021 -68.737H849.165C850.026 -84.235 859.784 -94.28 877.865 -94.28C894.511 -94.28 906.278 -85.67 906.278 -64.145V-58.405C895.946 -57.831 878.726 -56.109 866.959 -54.1C825.057 -47.499 810.994 -32.001 810.994 -8.18C810.994 16.789 829.936 35.157 860.358 35.157C882.457 35.157 898.816 27.121 909.435 11.623H910.009C910.009 18.511 910.583 25.686 912.018 32H941.579C939.283 22.816 937.848 10.762 937.848 -6.458V-60.988C937.848 -99.159 916.323 -118.101 877.865 -118.101ZM906.278 -29.992C906.278 -14.494 903.982 -6.745 896.233 1.291C889.632 7.892 879.874 11.049 869.829 11.049C853.183 11.049 843.999 2.439 843.999 -10.476C843.999 -23.678 851.748 -29.992 872.699 -33.436C882.457 -35.158 896.52 -36.593 906.278 -37.167V-29.992ZM1027.41 -117.24C1008.18 -117.24 992.97 -108.056 983.786 -94.854H983.212V-113.796H952.216V32H984.934V-48.934C984.934 -76.773 999.571 -90.836 1018.23 -90.836C1036.59 -90.836 1047.79 -80.504 1047.79 -54.387V32H1080.5V-57.257C1080.5 -97.15 1060.41 -117.24 1027.41 -117.24Z" fill="#5F5F5F"/>
</g>
</svg>
