<svg width="1440" height="331" viewBox="0 0 1440 331" fill="none" xmlns="http://www.w3.org/2000/svg">
<mask id="mask0_182_1541" style="mask-type:alpha" maskUnits="userSpaceOnUse" x="0" y="0" width="1440" height="331">
<rect width="1440" height="331" fill="#C4C4C4"/>
</mask>
<g mask="url(#mask0_182_1541)">
<rect width="1440" height="800" fill="#20262C"/>
<path d="M226.16 286.09V271.39H179.33V458.29H226.16V443.59H202.01V286.09H226.16ZM1260.27 271.39H1213.44V286.09H1237.59V443.59H1213.44V458.29H1260.27V271.39Z" fill="#EEEEEE"/>
<path d="M289.26 348.67L350.37 277.48H320.13L265.53 344.05H265.11V277.48H239.91V427H265.11V354.97H265.53L323.28 427H355.83L289.26 348.67ZM462.417 299.32V277.48H362.457V427H464.517V405.16H387.657V361.48H457.797V339.85H387.657V299.32H462.417ZM583.167 299.32V277.48H483.207V427H585.267V405.16H508.407V361.48H578.547V339.85H508.407V299.32H583.167ZM603.957 277.48V427H629.157V366.94H650.787C666.117 366.94 672.627 372.61 678.507 389.41L691.107 427H718.617L703.287 384.79C696.567 366.1 691.737 359.8 681.027 356.23V355.81C698.037 351.61 708.747 337.54 708.747 318.85C708.747 292.81 692.157 277.48 655.407 277.48H603.957ZM629.157 298.27H652.677C672.417 298.27 683.337 305.41 683.337 321.37C683.547 336.28 674.937 346.36 654.147 346.36H629.157V298.27ZM779.374 375.55V355.81H726.874V375.55H779.374ZM806.164 277.48V427H831.364V366.94H852.994C868.324 366.94 874.834 372.61 880.714 389.41L893.314 427H920.824L905.494 384.79C898.774 366.1 893.944 359.8 883.234 356.23V355.81C900.244 351.61 910.954 337.54 910.954 318.85C910.954 292.81 894.364 277.48 857.614 277.48H806.164ZM831.364 298.27H854.884C874.624 298.27 885.544 305.41 885.544 321.37C885.754 336.28 877.144 346.36 856.354 346.36H831.364V298.27ZM990.235 274.33C947.395 274.33 920.935 304.15 920.935 352.24C920.935 400.33 947.395 430.15 990.235 430.15C1033.08 430.15 1059.54 400.33 1059.54 352.24C1059.54 304.15 1033.08 274.33 990.235 274.33ZM990.235 296.8C1016.91 296.8 1033.5 318.01 1033.5 352.24C1033.5 386.47 1016.91 407.68 990.235 407.68C963.565 407.68 946.975 386.47 946.975 352.24C946.975 318.01 963.565 296.8 990.235 296.8ZM1199.65 427V277.48H1175.5V336.28C1175.5 358.96 1175.92 381.64 1176.55 404.32H1176.13C1166.05 382.9 1155.34 361.27 1144.42 340.06L1112.29 277.48H1075.96V427H1100.32V368.2C1100.32 345.52 1099.9 322.84 1099.06 300.16H1099.48C1109.56 321.58 1120.27 343.21 1131.19 364.42L1163.53 427H1199.65Z" fill="#20262C"/>
<path d="M289.83 360.67L350.94 289.48H320.7L266.1 356.05H265.68V289.48H240.48V439H265.68V366.97H266.1L323.85 439H356.4L289.83 360.67ZM462.986 311.32V289.48H363.026V439H465.086V417.16H388.226V373.48H458.366V351.85H388.226V311.32H462.986ZM583.736 311.32V289.48H483.776V439H585.836V417.16H508.976V373.48H579.116V351.85H508.976V311.32H583.736ZM604.526 289.48V439H629.726V378.94H651.356C666.686 378.94 673.196 384.61 679.076 401.41L691.676 439H719.186L703.856 396.79C697.136 378.1 692.306 371.8 681.596 368.23V367.81C698.606 363.61 709.316 349.54 709.316 330.85C709.316 304.81 692.726 289.48 655.976 289.48H604.526ZM629.726 310.27H653.246C672.986 310.27 683.906 317.41 683.906 333.37C684.116 348.28 675.506 358.36 654.716 358.36H629.726V310.27ZM779.944 387.55V367.81H727.444V387.55H779.944ZM806.734 289.48V439H831.934V378.94H853.564C868.894 378.94 875.404 384.61 881.284 401.41L893.884 439H921.394L906.064 396.79C899.344 378.1 894.514 371.8 883.804 368.23V367.81C900.814 363.61 911.524 349.54 911.524 330.85C911.524 304.81 894.934 289.48 858.184 289.48H806.734ZM831.934 310.27H855.454C875.194 310.27 886.114 317.41 886.114 333.37C886.324 348.28 877.714 358.36 856.924 358.36H831.934V310.27ZM990.805 286.33C947.965 286.33 921.505 316.15 921.505 364.24C921.505 412.33 947.965 442.15 990.805 442.15C1033.65 442.15 1060.11 412.33 1060.11 364.24C1060.11 316.15 1033.65 286.33 990.805 286.33ZM990.805 308.8C1017.48 308.8 1034.07 330.01 1034.07 364.24C1034.07 398.47 1017.48 419.68 990.805 419.68C964.135 419.68 947.545 398.47 947.545 364.24C947.545 330.01 964.135 308.8 990.805 308.8ZM1200.22 439V289.48H1176.07V348.28C1176.07 370.96 1176.49 393.64 1177.12 416.32H1176.7C1166.62 394.9 1155.91 373.27 1144.99 352.06L1112.86 289.48H1076.53V439H1100.89V380.2C1100.89 357.52 1100.47 334.84 1099.63 312.16H1100.05C1110.13 333.58 1120.84 355.21 1131.76 376.42L1164.1 439H1200.22Z" fill="#EEEEEE"/>
</g>
</svg>
