<svg width="1440" height="331" viewBox="0 0 1440 331" fill="none" xmlns="http://www.w3.org/2000/svg">
<mask id="mask0_182_1541" style="mask-type:alpha" maskUnits="userSpaceOnUse" x="0" y="0" width="1440" height="331">
<rect width="1440" height="331" fill="#C4C4C4"/>
</mask>
<g mask="url(#mask0_182_1541)">
<rect width="1440" height="800" fill="#5F5F5F"/>
<path d="M378.701 331.949L462.218 234.656H420.89L346.27 325.635H345.696V234.656H311.256V439H345.696V340.559H346.27L425.195 439H469.68L378.701 331.949ZM524.943 419.197C504.566 419.197 487.92 405.708 486.772 372.703H593.823C593.823 358.64 592.675 347.734 589.805 338.55C581.769 308.128 557.661 288.899 524.369 288.899C480.171 288.899 454.341 321.33 454.341 364.38C454.341 411.448 480.458 443.305 524.943 443.305C563.114 443.305 586.648 421.206 592.101 395.089H558.522C555.652 409.152 543.598 419.197 524.943 419.197ZM524.369 313.007C543.885 313.007 558.809 325.635 561.105 351.178H487.346C490.216 325.922 504.566 313.007 524.369 313.007ZM674.62 419.197C654.243 419.197 637.597 405.708 636.449 372.703H743.5C743.5 358.64 742.352 347.734 739.482 338.55C731.446 308.128 707.338 288.899 674.046 288.899C629.848 288.899 604.018 321.33 604.018 364.38C604.018 411.448 630.135 443.305 674.62 443.305C712.791 443.305 736.325 421.206 741.778 395.089H708.199C705.329 409.152 693.275 419.197 674.62 419.197ZM674.046 313.007C693.562 313.007 708.486 325.635 710.782 351.178H637.023C639.893 325.922 654.243 313.007 674.046 313.007ZM832.047 291.195C813.966 291.195 800.19 298.944 790.432 314.729H789.858V293.204H759.436V439H792.154V367.537C792.154 337.115 806.504 320.469 832.621 320.469C836.352 320.469 840.083 320.756 844.101 321.617V292.63C840.37 291.769 835.778 291.195 832.047 291.195ZM919.568 288.899C875.37 288.899 847.531 318.747 847.531 366.102C847.531 413.457 875.37 443.305 919.568 443.305C963.766 443.305 991.318 413.457 991.318 366.102C991.318 318.747 963.766 288.899 919.568 288.899ZM919.568 314.729C942.815 314.729 957.165 334.532 957.165 366.102C957.165 397.672 942.815 417.475 919.568 417.475C896.321 417.475 881.971 397.672 881.971 366.102C881.971 334.532 896.321 314.729 919.568 314.729ZM1081.19 289.76C1061.96 289.76 1046.75 298.944 1037.57 312.146H1036.99V293.204H1006V439H1038.72V358.066C1038.72 330.227 1053.35 316.164 1072.01 316.164C1090.38 316.164 1101.57 326.496 1101.57 352.613V439H1134.29V349.743C1134.29 309.85 1114.2 289.76 1081.19 289.76Z" fill="#EEEEEE"/>
</g>
</svg>
