<svg width="1440" height="38" viewBox="0 0 1440 38" fill="none" xmlns="http://www.w3.org/2000/svg">
<mask id="mask0_182_1536" style="mask-type:alpha" maskUnits="userSpaceOnUse" x="0" y="0" width="1440" height="38">
<rect width="1440" height="38" fill="#C4C4C4"/>
</mask>
<g mask="url(#mask0_182_1536)">
<rect y="-331" width="1440" height="800" fill="#20262C"/>
<path d="M226.16 -44.91V-59.61H179.33V127.29H226.16V112.59H202.01V-44.91H226.16ZM1260.27 -59.61H1213.44V-44.91H1237.59V112.59H1213.44V127.29H1260.27V-59.61Z" fill="#EEEEEE"/>
<path d="M289.26 17.67L350.37 -53.52H320.13L265.53 13.05H265.11V-53.52H239.91V96H265.11V23.97H265.53L323.28 96H355.83L289.26 17.67ZM462.417 -31.68V-53.52H362.457V96H464.517V74.16H387.657V30.48H457.797V8.85H387.657V-31.68H462.417ZM583.167 -31.68V-53.52H483.207V96H585.267V74.16H508.407V30.48H578.547V8.85H508.407V-31.68H583.167ZM603.957 -53.52V96H629.157V35.94H650.787C666.117 35.94 672.627 41.61 678.507 58.41L691.107 96H718.617L703.287 53.79C696.567 35.1 691.737 28.8 681.027 25.23V24.81C698.037 20.61 708.747 6.53999 708.747 -12.15C708.747 -38.19 692.157 -53.52 655.407 -53.52H603.957ZM629.157 -32.73H652.677C672.417 -32.73 683.337 -25.59 683.337 -9.63C683.547 5.28 674.937 15.36 654.147 15.36H629.157V-32.73ZM779.374 44.55V24.81H726.874V44.55H779.374ZM806.164 -53.52V96H831.364V35.94H852.994C868.324 35.94 874.834 41.61 880.714 58.41L893.314 96H920.824L905.494 53.79C898.774 35.1 893.944 28.8 883.234 25.23V24.81C900.244 20.61 910.954 6.53999 910.954 -12.15C910.954 -38.19 894.364 -53.52 857.614 -53.52H806.164ZM831.364 -32.73H854.884C874.624 -32.73 885.544 -25.59 885.544 -9.63C885.754 5.28 877.144 15.36 856.354 15.36H831.364V-32.73ZM990.235 -56.67C947.395 -56.67 920.935 -26.85 920.935 21.24C920.935 69.33 947.395 99.15 990.235 99.15C1033.08 99.15 1059.54 69.33 1059.54 21.24C1059.54 -26.85 1033.08 -56.67 990.235 -56.67ZM990.235 -34.2C1016.91 -34.2 1033.5 -12.99 1033.5 21.24C1033.5 55.47 1016.91 76.68 990.235 76.68C963.565 76.68 946.975 55.47 946.975 21.24C946.975 -12.99 963.565 -34.2 990.235 -34.2ZM1199.65 96V-53.52H1175.5V5.28C1175.5 27.96 1175.92 50.64 1176.55 73.32H1176.13C1166.05 51.9 1155.34 30.27 1144.42 9.05999L1112.29 -53.52H1075.96V96H1100.32V37.2C1100.32 14.52 1099.9 -8.16 1099.06 -30.84H1099.48C1109.56 -9.42001 1120.27 12.21 1131.19 33.42L1163.53 96H1199.65Z" fill="#20262C"/>
<path d="M289.83 29.67L350.94 -41.52H320.7L266.1 25.05H265.68V-41.52H240.48V108H265.68V35.97H266.1L323.85 108H356.4L289.83 29.67ZM462.986 -19.68V-41.52H363.026V108H465.086V86.16H388.226V42.48H458.366V20.85H388.226V-19.68H462.986ZM583.736 -19.68V-41.52H483.776V108H585.836V86.16H508.976V42.48H579.116V20.85H508.976V-19.68H583.736ZM604.526 -41.52V108H629.726V47.94H651.356C666.686 47.94 673.196 53.61 679.076 70.41L691.676 108H719.186L703.856 65.79C697.136 47.1 692.306 40.8 681.596 37.23V36.81C698.606 32.61 709.316 18.54 709.316 -0.15001C709.316 -26.19 692.726 -41.52 655.976 -41.52H604.526ZM629.726 -20.73H653.246C672.986 -20.73 683.906 -13.59 683.906 2.37C684.116 17.28 675.506 27.36 654.716 27.36H629.726V-20.73ZM779.944 56.55V36.81H727.444V56.55H779.944ZM806.734 -41.52V108H831.934V47.94H853.564C868.894 47.94 875.404 53.61 881.284 70.41L893.884 108H921.394L906.064 65.79C899.344 47.1 894.514 40.8 883.804 37.23V36.81C900.814 32.61 911.524 18.54 911.524 -0.15001C911.524 -26.19 894.934 -41.52 858.184 -41.52H806.734ZM831.934 -20.73H855.454C875.194 -20.73 886.114 -13.59 886.114 2.37C886.324 17.28 877.714 27.36 856.924 27.36H831.934V-20.73ZM990.805 -44.67C947.965 -44.67 921.505 -14.85 921.505 33.24C921.505 81.33 947.965 111.15 990.805 111.15C1033.65 111.15 1060.11 81.33 1060.11 33.24C1060.11 -14.85 1033.65 -44.67 990.805 -44.67ZM990.805 -22.2C1017.48 -22.2 1034.07 -0.990011 1034.07 33.24C1034.07 67.47 1017.48 88.68 990.805 88.68C964.135 88.68 947.545 67.47 947.545 33.24C947.545 -0.990011 964.135 -22.2 990.805 -22.2ZM1200.22 108V-41.52H1176.07V17.28C1176.07 39.96 1176.49 62.64 1177.12 85.32H1176.7C1166.62 63.9 1155.91 42.27 1144.99 21.06L1112.86 -41.52H1076.53V108H1100.89V49.2C1100.89 26.52 1100.47 3.84 1099.63 -18.84H1100.05C1110.13 2.57999 1120.84 24.21 1131.76 45.42L1164.1 108H1200.22Z" fill="#EEEEEE"/>
</g>
</svg>
