<svg width="1440" height="38" viewBox="0 0 1440 38" fill="none" xmlns="http://www.w3.org/2000/svg">
<mask id="mask0_182_1536" style="mask-type:alpha" maskUnits="userSpaceOnUse" x="0" y="0" width="1440" height="38">
<rect width="1440" height="38" fill="#C4C4C4"/>
</mask>
<g mask="url(#mask0_182_1536)">
<rect y="-331" width="1440" height="800" fill="#5F5F5F"/>
<path d="M378.701 0.948993L462.218 -96.344H420.89L346.27 -5.365H345.696V-96.344H311.256V108H345.696V9.55899H346.27L425.195 108H469.68L378.701 0.948993ZM524.943 88.197C504.566 88.197 487.92 74.708 486.772 41.703H593.823C593.823 27.64 592.675 16.734 589.805 7.54999C581.769 -22.872 557.661 -42.101 524.369 -42.101C480.171 -42.101 454.341 -9.67001 454.341 33.38C454.341 80.448 480.458 112.305 524.943 112.305C563.114 112.305 586.648 90.206 592.101 64.089H558.522C555.652 78.152 543.598 88.197 524.943 88.197ZM524.369 -17.993C543.885 -17.993 558.809 -5.365 561.105 20.178H487.346C490.216 -5.07801 504.566 -17.993 524.369 -17.993ZM674.62 88.197C654.243 88.197 637.597 74.708 636.449 41.703H743.5C743.5 27.64 742.352 16.734 739.482 7.54999C731.446 -22.872 707.338 -42.101 674.046 -42.101C629.848 -42.101 604.018 -9.67001 604.018 33.38C604.018 80.448 630.135 112.305 674.62 112.305C712.791 112.305 736.325 90.206 741.778 64.089H708.199C705.329 78.152 693.275 88.197 674.62 88.197ZM674.046 -17.993C693.562 -17.993 708.486 -5.365 710.782 20.178H637.023C639.893 -5.07801 654.243 -17.993 674.046 -17.993ZM832.047 -39.805C813.966 -39.805 800.19 -32.056 790.432 -16.271H789.858V-37.796H759.436V108H792.154V36.537C792.154 6.11499 806.504 -10.531 832.621 -10.531C836.352 -10.531 840.083 -10.244 844.101 -9.383V-38.37C840.37 -39.231 835.778 -39.805 832.047 -39.805ZM919.568 -42.101C875.37 -42.101 847.531 -12.253 847.531 35.102C847.531 82.457 875.37 112.305 919.568 112.305C963.766 112.305 991.318 82.457 991.318 35.102C991.318 -12.253 963.766 -42.101 919.568 -42.101ZM919.568 -16.271C942.815 -16.271 957.165 3.53199 957.165 35.102C957.165 66.672 942.815 86.475 919.568 86.475C896.321 86.475 881.971 66.672 881.971 35.102C881.971 3.53199 896.321 -16.271 919.568 -16.271ZM1081.19 -41.24C1061.96 -41.24 1046.75 -32.056 1037.57 -18.854H1036.99V-37.796H1006V108H1038.72V27.066C1038.72 -0.773002 1053.35 -14.836 1072.01 -14.836C1090.38 -14.836 1101.57 -4.50401 1101.57 21.613V108H1134.29V18.743C1134.29 -21.15 1114.2 -41.24 1081.19 -41.24Z" fill="#EEEEEE"/>
</g>
</svg>
