<svg width="1440" height="38" viewBox="0 0 1440 38" fill="none" xmlns="http://www.w3.org/2000/svg">
<mask id="mask0_182_1531" style="mask-type:alpha" maskUnits="userSpaceOnUse" x="0" y="0" width="1440" height="38">
<rect width="1440" height="38" fill="#C4C4C4"/>
</mask>
<g mask="url(#mask0_182_1531)">
<rect y="-369" width="1440" height="800" fill="#20262C"/>
<path d="M226.16 -82.91V-97.61H179.33V89.29H226.16V74.59H202.01V-82.91H226.16ZM1260.27 -97.61H1213.44V-82.91H1237.59V74.59H1213.44V89.29H1260.27V-97.61Z" fill="#EEEEEE"/>
<path d="M289.26 -20.33L350.37 -91.52H320.13L265.53 -24.95H265.11V-91.52H239.91V58H265.11V-14.03H265.53L323.28 58H355.83L289.26 -20.33ZM462.417 -69.68V-91.52H362.457V58H464.517V36.16H387.657V-7.52H457.797V-29.15H387.657V-69.68H462.417ZM583.167 -69.68V-91.52H483.207V58H585.267V36.16H508.407V-7.52H578.547V-29.15H508.407V-69.68H583.167ZM603.957 -91.52V58H629.157V-2.06H650.787C666.117 -2.06 672.627 3.61 678.507 20.41L691.107 58H718.617L703.287 15.79C696.567 -2.9 691.737 -9.2 681.027 -12.77V-13.19C698.037 -17.39 708.747 -31.46 708.747 -50.15C708.747 -76.19 692.157 -91.52 655.407 -91.52H603.957ZM629.157 -70.73H652.677C672.417 -70.73 683.337 -63.59 683.337 -47.63C683.547 -32.72 674.937 -22.64 654.147 -22.64H629.157V-70.73ZM779.374 6.55V-13.19H726.874V6.55H779.374ZM806.164 -91.52V58H831.364V-2.06H852.994C868.324 -2.06 874.834 3.61 880.714 20.41L893.314 58H920.824L905.494 15.79C898.774 -2.9 893.944 -9.2 883.234 -12.77V-13.19C900.244 -17.39 910.954 -31.46 910.954 -50.15C910.954 -76.19 894.364 -91.52 857.614 -91.52H806.164ZM831.364 -70.73H854.884C874.624 -70.73 885.544 -63.59 885.544 -47.63C885.754 -32.72 877.144 -22.64 856.354 -22.64H831.364V-70.73ZM990.235 -94.67C947.395 -94.67 920.935 -64.85 920.935 -16.76C920.935 31.33 947.395 61.15 990.235 61.15C1033.08 61.15 1059.54 31.33 1059.54 -16.76C1059.54 -64.85 1033.08 -94.67 990.235 -94.67ZM990.235 -72.2C1016.91 -72.2 1033.5 -50.99 1033.5 -16.76C1033.5 17.47 1016.91 38.68 990.235 38.68C963.565 38.68 946.975 17.47 946.975 -16.76C946.975 -50.99 963.565 -72.2 990.235 -72.2ZM1199.65 58V-91.52H1175.5V-32.72C1175.5 -10.04 1175.92 12.64 1176.55 35.32H1176.13C1166.05 13.9 1155.34 -7.73 1144.42 -28.94L1112.29 -91.52H1075.96V58H1100.32V-0.8C1100.32 -23.48 1099.9 -46.16 1099.06 -68.84H1099.48C1109.56 -47.42 1120.27 -25.79 1131.19 -4.58L1163.53 58H1199.65Z" fill="#20262C"/>
<path d="M289.83 -8.33001L350.94 -79.52H320.7L266.1 -12.95H265.68V-79.52H240.48V70H265.68V-2.03001H266.1L323.85 70H356.4L289.83 -8.33001ZM462.986 -57.68V-79.52H363.026V70H465.086V48.16H388.226V4.48H458.366V-17.15H388.226V-57.68H462.986ZM583.736 -57.68V-79.52H483.776V70H585.836V48.16H508.976V4.48H579.116V-17.15H508.976V-57.68H583.736ZM604.526 -79.52V70H629.726V9.94H651.356C666.686 9.94 673.196 15.61 679.076 32.41L691.676 70H719.186L703.856 27.79C697.136 9.1 692.306 2.8 681.596 -0.770003V-1.19C698.606 -5.39001 709.316 -19.46 709.316 -38.15C709.316 -64.19 692.726 -79.52 655.976 -79.52H604.526ZM629.726 -58.73H653.246C672.986 -58.73 683.906 -51.59 683.906 -35.63C684.116 -20.72 675.506 -10.64 654.716 -10.64H629.726V-58.73ZM779.944 18.55V-1.19H727.444V18.55H779.944ZM806.734 -79.52V70H831.934V9.94H853.564C868.894 9.94 875.404 15.61 881.284 32.41L893.884 70H921.394L906.064 27.79C899.344 9.1 894.514 2.8 883.804 -0.770003V-1.19C900.814 -5.39001 911.524 -19.46 911.524 -38.15C911.524 -64.19 894.934 -79.52 858.184 -79.52H806.734ZM831.934 -58.73H855.454C875.194 -58.73 886.114 -51.59 886.114 -35.63C886.324 -20.72 877.714 -10.64 856.924 -10.64H831.934V-58.73ZM990.805 -82.67C947.965 -82.67 921.505 -52.85 921.505 -4.76C921.505 43.33 947.965 73.15 990.805 73.15C1033.65 73.15 1060.11 43.33 1060.11 -4.76C1060.11 -52.85 1033.65 -82.67 990.805 -82.67ZM990.805 -60.2C1017.48 -60.2 1034.07 -38.99 1034.07 -4.76C1034.07 29.47 1017.48 50.68 990.805 50.68C964.135 50.68 947.545 29.47 947.545 -4.76C947.545 -38.99 964.135 -60.2 990.805 -60.2ZM1200.22 70V-79.52H1176.07V-20.72C1176.07 1.96 1176.49 24.64 1177.12 47.32H1176.7C1166.62 25.9 1155.91 4.27 1144.99 -16.94L1112.86 -79.52H1076.53V70H1100.89V11.2C1100.89 -11.48 1100.47 -34.16 1099.63 -56.84H1100.05C1110.13 -35.42 1120.84 -13.79 1131.76 7.42L1164.1 70H1200.22Z" fill="#EEEEEE"/>
</g>
</svg>
