<svg width="1440" height="38" viewBox="0 0 1440 38" fill="none" xmlns="http://www.w3.org/2000/svg">
<mask id="mask0_182_1531" style="mask-type:alpha" maskUnits="userSpaceOnUse" x="0" y="0" width="1440" height="38">
<rect width="1440" height="38" fill="#C4C4C4"/>
</mask>
<g mask="url(#mask0_182_1531)">
<rect y="-369" width="1440" height="800" fill="#5F5F5F"/>
<path d="M378.701 -37.051L462.218 -134.344H420.89L346.27 -43.365H345.696V-134.344H311.256V70H345.696V-28.441H346.27L425.195 70H469.68L378.701 -37.051ZM524.943 50.197C504.566 50.197 487.92 36.708 486.772 3.703H593.823C593.823 -10.36 592.675 -21.266 589.805 -30.45C581.769 -60.872 557.661 -80.101 524.369 -80.101C480.171 -80.101 454.341 -47.67 454.341 -4.62001C454.341 42.448 480.458 74.305 524.943 74.305C563.114 74.305 586.648 52.206 592.101 26.089H558.522C555.652 40.152 543.598 50.197 524.943 50.197ZM524.369 -55.993C543.885 -55.993 558.809 -43.365 561.105 -17.822H487.346C490.216 -43.078 504.566 -55.993 524.369 -55.993ZM674.62 50.197C654.243 50.197 637.597 36.708 636.449 3.703H743.5C743.5 -10.36 742.352 -21.266 739.482 -30.45C731.446 -60.872 707.338 -80.101 674.046 -80.101C629.848 -80.101 604.018 -47.67 604.018 -4.62001C604.018 42.448 630.135 74.305 674.62 74.305C712.791 74.305 736.325 52.206 741.778 26.089H708.199C705.329 40.152 693.275 50.197 674.62 50.197ZM674.046 -55.993C693.562 -55.993 708.486 -43.365 710.782 -17.822H637.023C639.893 -43.078 654.243 -55.993 674.046 -55.993ZM832.047 -77.805C813.966 -77.805 800.19 -70.056 790.432 -54.271H789.858V-75.796H759.436V70H792.154V-1.463C792.154 -31.885 806.504 -48.531 832.621 -48.531C836.352 -48.531 840.083 -48.244 844.101 -47.383V-76.37C840.37 -77.231 835.778 -77.805 832.047 -77.805ZM919.568 -80.101C875.37 -80.101 847.531 -50.253 847.531 -2.898C847.531 44.457 875.37 74.305 919.568 74.305C963.766 74.305 991.318 44.457 991.318 -2.898C991.318 -50.253 963.766 -80.101 919.568 -80.101ZM919.568 -54.271C942.815 -54.271 957.165 -34.468 957.165 -2.898C957.165 28.672 942.815 48.475 919.568 48.475C896.321 48.475 881.971 28.672 881.971 -2.898C881.971 -34.468 896.321 -54.271 919.568 -54.271ZM1081.19 -79.24C1061.96 -79.24 1046.75 -70.056 1037.57 -56.854H1036.99V-75.796H1006V70H1038.72V-10.934C1038.72 -38.773 1053.35 -52.836 1072.01 -52.836C1090.38 -52.836 1101.57 -42.504 1101.57 -16.387V70H1134.29V-19.257C1134.29 -59.15 1114.2 -79.24 1081.19 -79.24Z" fill="#EEEEEE"/>
</g>
</svg>
