<svg width="1440" height="38" viewBox="0 0 1440 38" fill="none" xmlns="http://www.w3.org/2000/svg">
<mask id="mask0_182_1526" style="mask-type:alpha" maskUnits="userSpaceOnUse" x="0" y="0" width="1440" height="38">
<rect width="1440" height="38" fill="#C4C4C4"/>
</mask>
<g mask="url(#mask0_182_1526)">
<rect y="-407" width="1440" height="800" fill="#5F5F5F"/>
<path d="M378.701 -75.051L462.218 -172.344H420.89L346.27 -81.365H345.696V-172.344H311.256V32H345.696V-66.441H346.27L425.195 32H469.68L378.701 -75.051ZM524.943 12.197C504.566 12.197 487.92 -1.292 486.772 -34.297H593.823C593.823 -48.36 592.675 -59.266 589.805 -68.45C581.769 -98.872 557.661 -118.101 524.369 -118.101C480.171 -118.101 454.341 -85.67 454.341 -42.62C454.341 4.448 480.458 36.305 524.943 36.305C563.114 36.305 586.648 14.206 592.101 -11.911H558.522C555.652 2.152 543.598 12.197 524.943 12.197ZM524.369 -93.993C543.885 -93.993 558.809 -81.365 561.105 -55.822H487.346C490.216 -81.078 504.566 -93.993 524.369 -93.993ZM674.62 12.197C654.243 12.197 637.597 -1.292 636.449 -34.297H743.5C743.5 -48.36 742.352 -59.266 739.482 -68.45C731.446 -98.872 707.338 -118.101 674.046 -118.101C629.848 -118.101 604.018 -85.67 604.018 -42.62C604.018 4.448 630.135 36.305 674.62 36.305C712.791 36.305 736.325 14.206 741.778 -11.911H708.199C705.329 2.152 693.275 12.197 674.62 12.197ZM674.046 -93.993C693.562 -93.993 708.486 -81.365 710.782 -55.822H637.023C639.893 -81.078 654.243 -93.993 674.046 -93.993ZM832.047 -115.805C813.966 -115.805 800.19 -108.056 790.432 -92.271H789.858V-113.796H759.436V32H792.154V-39.463C792.154 -69.885 806.504 -86.531 832.621 -86.531C836.352 -86.531 840.083 -86.244 844.101 -85.383V-114.37C840.37 -115.231 835.778 -115.805 832.047 -115.805ZM919.568 -118.101C875.37 -118.101 847.531 -88.253 847.531 -40.898C847.531 6.457 875.37 36.305 919.568 36.305C963.766 36.305 991.318 6.457 991.318 -40.898C991.318 -88.253 963.766 -118.101 919.568 -118.101ZM919.568 -92.271C942.815 -92.271 957.165 -72.468 957.165 -40.898C957.165 -9.328 942.815 10.475 919.568 10.475C896.321 10.475 881.971 -9.328 881.971 -40.898C881.971 -72.468 896.321 -92.271 919.568 -92.271ZM1081.19 -117.24C1061.96 -117.24 1046.75 -108.056 1037.57 -94.854H1036.99V-113.796H1006V32H1038.72V-48.934C1038.72 -76.773 1053.35 -90.836 1072.01 -90.836C1090.38 -90.836 1101.57 -80.504 1101.57 -54.387V32H1134.29V-57.257C1134.29 -97.15 1114.2 -117.24 1081.19 -117.24Z" fill="#EEEEEE"/>
</g>
</svg>
