<svg width="1440" height="38" viewBox="0 0 1440 38" fill="none" xmlns="http://www.w3.org/2000/svg">
<mask id="mask0_182_1526" style="mask-type:alpha" maskUnits="userSpaceOnUse" x="0" y="0" width="1440" height="38">
<rect width="1440" height="38" fill="#C4C4C4"/>
</mask>
<g mask="url(#mask0_182_1526)">
<rect y="-407" width="1440" height="800" fill="#20262C"/>
<path d="M226.16 -120.91V-135.61H179.33V51.29H226.16V36.59H202.01V-120.91H226.16ZM1260.27 -135.61H1213.44V-120.91H1237.59V36.59H1213.44V51.29H1260.27V-135.61Z" fill="#EEEEEE"/>
<path d="M289.26 -58.33L350.37 -129.52H320.13L265.53 -62.95H265.11V-129.52H239.91V20H265.11V-52.03H265.53L323.28 20H355.83L289.26 -58.33ZM462.417 -107.68V-129.52H362.457V20H464.517V-1.84H387.657V-45.52H457.797V-67.15H387.657V-107.68H462.417ZM583.167 -107.68V-129.52H483.207V20H585.267V-1.84H508.407V-45.52H578.547V-67.15H508.407V-107.68H583.167ZM603.957 -129.52V20H629.157V-40.06H650.787C666.117 -40.06 672.627 -34.39 678.507 -17.59L691.107 20H718.617L703.287 -22.21C696.567 -40.9 691.737 -47.2 681.027 -50.77V-51.19C698.037 -55.39 708.747 -69.46 708.747 -88.15C708.747 -114.19 692.157 -129.52 655.407 -129.52H603.957ZM629.157 -108.73H652.677C672.417 -108.73 683.337 -101.59 683.337 -85.63C683.547 -70.72 674.937 -60.64 654.147 -60.64H629.157V-108.73ZM779.374 -31.45V-51.19H726.874V-31.45H779.374ZM806.164 -129.52V20H831.364V-40.06H852.994C868.324 -40.06 874.834 -34.39 880.714 -17.59L893.314 20H920.824L905.494 -22.21C898.774 -40.9 893.944 -47.2 883.234 -50.77V-51.19C900.244 -55.39 910.954 -69.46 910.954 -88.15C910.954 -114.19 894.364 -129.52 857.614 -129.52H806.164ZM831.364 -108.73H854.884C874.624 -108.73 885.544 -101.59 885.544 -85.63C885.754 -70.72 877.144 -60.64 856.354 -60.64H831.364V-108.73ZM990.235 -132.67C947.395 -132.67 920.935 -102.85 920.935 -54.76C920.935 -6.67 947.395 23.15 990.235 23.15C1033.08 23.15 1059.54 -6.67 1059.54 -54.76C1059.54 -102.85 1033.08 -132.67 990.235 -132.67ZM990.235 -110.2C1016.91 -110.2 1033.5 -88.99 1033.5 -54.76C1033.5 -20.53 1016.91 0.679998 990.235 0.679998C963.565 0.679998 946.975 -20.53 946.975 -54.76C946.975 -88.99 963.565 -110.2 990.235 -110.2ZM1199.65 20V-129.52H1175.5V-70.72C1175.5 -48.04 1175.92 -25.36 1176.55 -2.68H1176.13C1166.05 -24.1 1155.34 -45.73 1144.42 -66.94L1112.29 -129.52H1075.96V20H1100.32V-38.8C1100.32 -61.48 1099.9 -84.16 1099.06 -106.84H1099.48C1109.56 -85.42 1120.27 -63.79 1131.19 -42.58L1163.53 20H1199.65Z" fill="#20262C"/>
<path d="M289.83 -46.33L350.94 -117.52H320.7L266.1 -50.95H265.68V-117.52H240.48V32H265.68V-40.03H266.1L323.85 32H356.4L289.83 -46.33ZM462.986 -95.68V-117.52H363.026V32H465.086V10.16H388.226V-33.52H458.366V-55.15H388.226V-95.68H462.986ZM583.736 -95.68V-117.52H483.776V32H585.836V10.16H508.976V-33.52H579.116V-55.15H508.976V-95.68H583.736ZM604.526 -117.52V32H629.726V-28.06H651.356C666.686 -28.06 673.196 -22.39 679.076 -5.59L691.676 32H719.186L703.856 -10.21C697.136 -28.9 692.306 -35.2 681.596 -38.77V-39.19C698.606 -43.39 709.316 -57.46 709.316 -76.15C709.316 -102.19 692.726 -117.52 655.976 -117.52H604.526ZM629.726 -96.73H653.246C672.986 -96.73 683.906 -89.59 683.906 -73.63C684.116 -58.72 675.506 -48.64 654.716 -48.64H629.726V-96.73ZM779.944 -19.45V-39.19H727.444V-19.45H779.944ZM806.734 -117.52V32H831.934V-28.06H853.564C868.894 -28.06 875.404 -22.39 881.284 -5.59L893.884 32H921.394L906.064 -10.21C899.344 -28.9 894.514 -35.2 883.804 -38.77V-39.19C900.814 -43.39 911.524 -57.46 911.524 -76.15C911.524 -102.19 894.934 -117.52 858.184 -117.52H806.734ZM831.934 -96.73H855.454C875.194 -96.73 886.114 -89.59 886.114 -73.63C886.324 -58.72 877.714 -48.64 856.924 -48.64H831.934V-96.73ZM990.805 -120.67C947.965 -120.67 921.505 -90.85 921.505 -42.76C921.505 5.33 947.965 35.15 990.805 35.15C1033.65 35.15 1060.11 5.33 1060.11 -42.76C1060.11 -90.85 1033.65 -120.67 990.805 -120.67ZM990.805 -98.2C1017.48 -98.2 1034.07 -76.99 1034.07 -42.76C1034.07 -8.53 1017.48 12.68 990.805 12.68C964.135 12.68 947.545 -8.53 947.545 -42.76C947.545 -76.99 964.135 -98.2 990.805 -98.2ZM1200.22 32V-117.52H1176.07V-58.72C1176.07 -36.04 1176.49 -13.36 1177.12 9.32H1176.7C1166.62 -12.1 1155.91 -33.73 1144.99 -54.94L1112.86 -117.52H1076.53V32H1100.89V-26.8C1100.89 -49.48 1100.47 -72.16 1099.63 -94.84H1100.05C1110.13 -73.42 1120.84 -51.79 1131.76 -30.58L1164.1 32H1200.22Z" fill="#EEEEEE"/>
</g>
</svg>
