<svg width="1440" height="38" viewBox="0 0 1440 38" fill="none" xmlns="http://www.w3.org/2000/svg">
<mask id="mask0_182_1521" style="mask-type:alpha" maskUnits="userSpaceOnUse" x="0" y="0" width="1440" height="38">
<rect width="1440" height="38" fill="#C4C4C4"/>
</mask>
<g mask="url(#mask0_182_1521)">
<rect y="-445" width="1440" height="800" fill="#5F5F5F"/>
<path d="M226.16 -158.91V-173.61H179.33V13.29H226.16V-1.41H202.01V-158.91H226.16ZM1260.27 -173.61H1213.44V-158.91H1237.59V-1.41H1213.44V13.29H1260.27V-173.61Z" fill="#EEEEEE"/>
<path d="M289.26 -96.33L350.37 -167.52H320.13L265.53 -100.95H265.11V-167.52H239.91V-18H265.11V-90.03H265.53L323.28 -18H355.83L289.26 -96.33ZM462.417 -145.68V-167.52H362.457V-18H464.517V-39.84H387.657V-83.52H457.797V-105.15H387.657V-145.68H462.417ZM583.167 -145.68V-167.52H483.207V-18H585.267V-39.84H508.407V-83.52H578.547V-105.15H508.407V-145.68H583.167ZM603.957 -167.52V-18H629.157V-78.06H650.787C666.117 -78.06 672.627 -72.39 678.507 -55.59L691.107 -18H718.617L703.287 -60.21C696.567 -78.9 691.737 -85.2 681.027 -88.77V-89.19C698.037 -93.39 708.747 -107.46 708.747 -126.15C708.747 -152.19 692.157 -167.52 655.407 -167.52H603.957ZM629.157 -146.73H652.677C672.417 -146.73 683.337 -139.59 683.337 -123.63C683.547 -108.72 674.937 -98.64 654.147 -98.64H629.157V-146.73ZM779.374 -69.45V-89.19H726.874V-69.45H779.374ZM806.164 -167.52V-18H831.364V-78.06H852.994C868.324 -78.06 874.834 -72.39 880.714 -55.59L893.314 -18H920.824L905.494 -60.21C898.774 -78.9 893.944 -85.2 883.234 -88.77V-89.19C900.244 -93.39 910.954 -107.46 910.954 -126.15C910.954 -152.19 894.364 -167.52 857.614 -167.52H806.164ZM831.364 -146.73H854.884C874.624 -146.73 885.544 -139.59 885.544 -123.63C885.754 -108.72 877.144 -98.64 856.354 -98.64H831.364V-146.73ZM990.235 -170.67C947.395 -170.67 920.935 -140.85 920.935 -92.76C920.935 -44.67 947.395 -14.85 990.235 -14.85C1033.08 -14.85 1059.54 -44.67 1059.54 -92.76C1059.54 -140.85 1033.08 -170.67 990.235 -170.67ZM990.235 -148.2C1016.91 -148.2 1033.5 -126.99 1033.5 -92.76C1033.5 -58.53 1016.91 -37.32 990.235 -37.32C963.565 -37.32 946.975 -58.53 946.975 -92.76C946.975 -126.99 963.565 -148.2 990.235 -148.2ZM1199.65 -18V-167.52H1175.5V-108.72C1175.5 -86.04 1175.92 -63.36 1176.55 -40.68H1176.13C1166.05 -62.1 1155.34 -83.73 1144.42 -104.94L1112.29 -167.52H1075.96V-18H1100.32V-76.8C1100.32 -99.48 1099.9 -122.16 1099.06 -144.84H1099.48C1109.56 -123.42 1120.27 -101.79 1131.19 -80.58L1163.53 -18H1199.65Z" fill="#5F5F5F"/>
</g>
</svg>
